<svg xmlns="http://www.w3.org/2000/svg" xmlns:xlink="http://www.w3.org/1999/xlink" viewBox="0 0 430 430" width="430" height="430" preserveAspectRatio="xMidYMid meet" style="width: 100%; height: 100%; transform: translate3d(0px, 0px, 0px); content-visibility: visible;"><defs><clipPath id="__lottie_element_51"><rect width="430" height="430" x="0" y="0"/></clipPath><clipPath id="__lottie_element_53"><path d="M0,0 L430,0 L430,430 L0,430z"/></clipPath><filter id="__lottie_element_59" x="-100%" y="-100%" width="300%" height="300%"><feGaussianBlur result="filter_result_0" stdDeviation="52.5 52.5" edgeMode="wrap"/></filter><g id="__lottie_element_60"><g clip-path="url(#__lottie_element_61)" transform="matrix(1,0,0,1,0,0)" opacity="1" style="display: block;"><g transform="matrix(0.9987791180610657,-0.04939880594611168,0.04939880594611168,0.9987791180610657,195.58428955078125,285)" opacity="1" style="display: block;"><g opacity="1" transform="matrix(1,0,0,1,0,0)"><path stroke-linecap="round" stroke-linejoin="round" fill-opacity="0" class="secondary" stroke="rgb(8,168,138)" stroke-opacity="1" stroke-width="8" d=" M-35,-35 C-35,-35 -35,35 -35,35 C-35,35 35,35 35,35 C35,35 35,-35 35,-35 C35,-35 -35,-35 -35,-35z"/><path fill="rgb(255,0,0)" fill-opacity="1" d=" M-35,-35 C-35,-35 -35,35 -35,35 C-35,35 35,35 35,35 C35,35 35,-35 35,-35 C35,-35 -35,-35 -35,-35z"/></g></g><g transform="matrix(0.9889757633209229,-0.14807750284671783,0.14807750284671783,0.9889757633209229,187.73617553710938,232.58428955078125)" opacity="1" style="display: block;"><g opacity="1" transform="matrix(1,0,0,1,0.28299999237060547,-107.09400177001953)"><path stroke-linecap="round" stroke-linejoin="round" fill-opacity="0" class="secondary" stroke="rgb(8,168,138)" stroke-opacity="1" stroke-width="12" d=" M-90,63.5 C-90,63.5 -89.16675567626953,23.868871688842773 -89.16675567626953,23.868871688842773 C-89.16675567626953,-25.837127685546875 -48.87275314331055,-66.1311264038086 0.8332452774047852,-66.1311264038086 C50.53924560546875,-66.1311264038086 90.83324432373047,-25.837127685546875 90.83324432373047,23.868871688842773 C90.83324432373047,23.868871688842773 90,63.5 90,63.5"/></g></g><g transform="matrix(0.9889757633209229,-0.14807750284671783,0.14807750284671783,0.9889757633209229,195.58428955078125,285)" opacity="1" style="display: block;"><g opacity="1" transform="matrix(1,0,0,1,0,0)"><path stroke-linecap="round" stroke-linejoin="round" fill-opacity="0" class="primary" stroke="rgb(18,19,49)" stroke-opacity="1" stroke-width="12" d=" M0.14800000190734863,-95 C-64.9010009765625,-95 -130,-95 -130,-95 C-130,-95 -130,55 -130,55 C-130,77.09100341796875 -112.09100341796875,95 -90,95 C-90,95 90,95 90,95 C112.09100341796875,95 130,77.09100341796875 130,55 C130,55 130,-95 130,-95 C130,-95 130,-95 130,-95 C130,-95 65.0989990234375,-95 0.14800000190734863,-95"/></g></g></g></g><clipPath id="__lottie_element_61"><path d="M0,0 L430,0 L430,430 L0,430z"/></clipPath><mask id="__lottie_element_60_1" mask-type="alpha"><use xmlns:ns1="http://www.w3.org/1999/xlink" ns1:href="#__lottie_element_60"/></mask></defs><g clip-path="url(#__lottie_element_51)"><g clip-path="url(#__lottie_element_53)" transform="matrix(1,0,0,1,0,0)" opacity="1" style="display: block;"><g mask="url(#__lottie_element_60_1)" style="display: block;"><g filter="url(#__lottie_element_59)" transform="matrix(-2.0312838554382324,1.2782357931137085,-1.2782357931137085,-2.0312838554382324,271.9410095214844,219.4600067138672)" opacity="1"><g class="design" opacity="1" transform="matrix(1,0,0,1,0,0)"><path class="primary" fill="rgb(75,225,236)" fill-opacity="1" d=" M0,-250 C137.97500610351562,-250 250,-137.97500610351562 250,0 C250,137.97500610351562 137.97500610351562,250 0,250 C-137.97500610351562,250 -250,137.97500610351562 -250,0 C-250,-137.97500610351562 -137.97500610351562,-250 0,-250z"/></g><g class="design" opacity="1" transform="matrix(1,0,0,1,113.24199676513672,-118.88400268554688)"><path class="secondary" fill="rgb(203,94,238)" fill-opacity="1" d=" M0,-176.5 C97.47799682617188,-176.5 176.5,-97.47799682617188 176.5,0 C176.5,97.47799682617188 97.47799682617188,176.5 0,176.5 C-43.948001861572266,176.5 -74.39600372314453,142.4429931640625 -105.29000091552734,115.86900329589844 C-142.92100524902344,83.5 -176.5,53.53099822998047 -176.5,0 C-176.5,-97.47799682617188 -97.47799682617188,-176.5 0,-176.5z"/></g></g></g></g></g></svg>